<svg xmlns:dc="http://purl.org/dc/elements/1.1/" xmlns:cc="http://creativecommons.org/ns#" xmlns:rdf="http://www.w3.org/1999/02/22-rdf-syntax-ns#" xmlns:svg="http://www.w3.org/2000/svg" xmlns="http://www.w3.org/2000/svg" version="1.0" width="1600" height="1300">
<metadata><rdf:RDF><cc:Work rdf:about=""><dc:format>image/svg+xml</dc:format><dc:type rdf:resource="http://purl.org/dc/dcmitype/StillImage"/></cc:Work></rdf:RDF></metadata>
<path fill="#FFF" d="M 1595,540 C 1480,740 1480,740 1320,920 C 1160,1060 840,1260 400,1280 C 120,1300 40,1220 90,860 C 120,580 0,540 10,460 C 0,340 120,380 150,180 C 240,60 760,5 760,5 C 760,5 1240,-20 1320,80 C 1440,380 1560,340 1595,540z"/>
<path d="M 294.70119,1299.475 C 249.01076,1298.1788 226.69933,1295.4819 207.11813,1288.8886 C 189.65931,1283.0099 152.27755,1263.1535 132.81735,1249.4216 C 113.38894,1235.712 91.544264,1209.9545 75.194392,1181.4772 C 66.902654,1167.0351 63.124734,1158.1563 60.957963,1148.0193 C 58.992195,1138.8225 59.674756,1103.0916 62.527589,1065.8523 C 69.266276,977.88889 72.930421,767.28929 68.614614,715.99544 C 65.72565,681.65982 62.190935,671.15201 36.214772,619.67895 C 8.9624534,565.67713 5.6247699,557.32063 1.8809706,533.71816 C -0.63770921,517.83927 -0.6231447,438.63594 1.9017771,420.60163 C 5.7214998,393.31928 13.501849,374.84356 30.127257,353.5756 C 38.407011,342.98378 54.315997,327.69183 63.639534,321.36311 C 80.164511,310.14613 94.006067,295.58035 102.04226,280.95105 C 109.72633,266.96273 115.1594,244.56085 116.6836,220.5812 C 117.81269,202.81773 119.28465,196.32734 124.63733,185.51033 C 135.96808,162.61249 160.82262,138.95766 203.6829,110.2802 C 276.29493,61.696097 335.40929,42.557364 474.76684,22.5147 C 563.28926,9.783235 607.80216,6.2742621 723.34381,2.9192491 C 857.12072,-0.96525957 1136.8749,-0.97529347 1187.9877,2.9025826 C 1224.5888,5.6794711 1238.5623,10.120086 1265.0115,27.379669 C 1290.6144,44.087038 1330.8173,81.644595 1348.0767,104.97904 C 1370.3582,135.10369 1386.6594,162.18687 1409.4931,207.01868 C 1418.8811,225.45084 1429.4879,245.40873 1433.0638,251.36956 C 1448.217,276.62868 1466.0165,296.79113 1507.0155,335.13845 C 1534.2182,360.58188 1563.5562,393.32423 1577.3183,413.59891 C 1590.8995,433.60718 1594.8097,442.66431 1597.7249,460.86573 C 1599.7934,473.78004 1600.7909,539.30251 1599.2529,561.2327 C 1597.1449,591.29483 1593.6879,600.98714 1574.9526,629.36429 C 1557.7967,655.34944 1534.8843,683.10947 1506.7564,711.98938 C 1486.6457,732.6377 1476.2497,745.33046 1463.5546,764.7353 C 1452.0939,782.253 1446.0909,792.97387 1436.2243,813.54376 C 1412.3359,863.3468 1389.4315,892.92609 1336.5336,942.28706 C 1290.6391,985.11289 1279.7441,993.53596 1235.9446,1020.0529 C 1177.4889,1055.4429 1114.3019,1088.5507 1074.9527,1104.4071 C 1046.9552,1115.6891 985.74706,1143.9601 923.40576,1174.4039 C 861.28252,1204.7413 820.44405,1223.1031 788.8641,1234.8968 C 773.59006,1240.6009 771.31362,1241.193 757.8545,1242.9608 C 733.97594,1246.0973 680.94835,1257.6267 606.30757,1275.9108 C 548.00159,1290.1936 519.12434,1295.4348 481.76901,1298.5147 C 465.45251,1299.86 332.35517,1300.5432 294.70119,1299.475 z M 415.24841,1271.4611 C 482.1585,1267.9809 517.04082,1261.8921 610.2119,1237.43 C 669.71018,1221.8086 722.8352,1209.4916 748.33634,1205.4061 C 763.70133,1202.9443 768.06154,1201.7558 785.65088,1195.2353 C 818.76712,1182.9586 852.46205,1167.8519 916.40359,1136.6135 C 984.72472,1103.2356 1023.5438,1085.2946 1057.9474,1071.1967 C 1101.4603,1053.366 1176.0109,1013.8936 1229.9522,980.12506 C 1260.8466,960.78434 1271.8867,952.00673 1311.5258,915.26847 C 1359.1238,871.15373 1375.8798,849.39628 1401.2605,798.74851 C 1423.2042,754.9594 1436.6434,733.89509 1457.3137,710.89306 C 1469.4954,697.33699 1472.0258,693.7579 1470.5042,692.23611 C 1469.9299,691.66179 1465.223,692.43589 1458.2163,694.2571 C 1446.4453,697.31679 1441.066,697.92882 1441.066,696.20866 C 1441.066,693.40497 1451.3303,686.83201 1465.1404,680.79224 C 1500.6313,665.27026 1514.1953,653.8169 1536.2157,620.77664 C 1570.0769,569.97 1581.3539,515.67618 1566.9876,472.62184 C 1558.8433,448.21342 1531.0175,408.90167 1499.6538,377.4939 C 1483.4507,361.268 1474.5762,354.23577 1466.8022,351.46236 C 1451.7115,346.07858 1423.1327,341.12762 1383.6332,337.05432 C 1367.7251,335.41382 1354.5054,333.86761 1354.2562,333.6183 C 1353.2424,332.60452 1360.1132,332.18298 1393.5513,331.20745 C 1412.8073,330.64569 1430.2055,329.70018 1432.2138,329.10633 C 1438.8927,327.13148 1438.3507,324.72868 1428.8655,314.26419 C 1416.3699,300.47841 1404.203,279.71995 1381.545,233.52898 C 1349.0159,167.21375 1324.7601,129.77072 1295.1235,100.12216 C 1270.8649,75.853626 1251.6517,61.124425 1229.8519,50.083837 C 1199.9075,34.918317 1184.8401,33.944249 980.52635,33.965537 C 851.9587,33.978932 800.07476,34.606166 732.3466,36.965812 C 701.70811,38.033257 645.32553,40.551645 631.81547,41.456146 C 627.68919,41.732394 616.66078,42.429704 607.30788,43.005708 C 547.98028,46.659437 490.47285,53.153699 469.32513,58.58798 C 461.90147,60.495631 455.76095,63.572296 455.76095,65.38424 C 455.76095,68.601939 465.19224,69.468016 499.27443,69.380092 C 560.71896,69.22159 684.42824,61.580242 725.34443,55.416068 C 744.80825,52.483769 748.51592,52.02139 764.35651,50.550939 C 794.92716,47.713116 818.56113,46.659617 852.38377,46.627065 C 925.0438,46.557127 967.228,54.2117 1036.6446,80.06228 C 1073.7248,93.870803 1090.3848,101.78566 1125.8213,122.42824 C 1173.6077,150.26491 1232.3128,189.74499 1250.7571,206.44941 C 1256.0754,211.26598 1257.3796,214.0214 1254.3413,214.0214 C 1250.8444,214.0214 1231.6929,202.22067 1215.4962,190.08596 C 1165.2513,152.44202 1074.8836,105.27209 1003.9307,79.653462 C 972.54054,68.31957 942.80911,61.766845 897.89786,56.284115 C 880.37704,54.145185 840.83959,53.903351 815.87246,55.7824 C 770.31897,59.210802 736.18048,62.443177 697.83591,66.958591 C 618.40975,76.311744 560.62,79.190682 498.27412,76.900262 C 455.27672,75.320649 410.52729,75.303032 391.24097,76.858106 C 347.05281,80.42106 324.79351,87.114399 275.7052,111.59956 C 231.84654,133.47618 194.2173,158.15756 174.63341,177.89355 C 166.8137,185.77399 164.34112,189.04697 160.94398,196.01441 C 153.49133,211.29956 151.87671,218.11546 149.68736,243.53286 C 147.86275,264.71592 143.00828,283.05886 135.52307,297.05365 C 127.46093,312.1271 112.16006,329.62353 92.648516,346.08036 C 68.69834,366.28092 48.248268,389.51388 43.656006,401.73988 C 35.679706,422.97526 31.954253,457.78174 33.660091,495.13058 C 35.265348,530.27722 38.739233,541.13949 65.173889,593.66885 C 86.003449,635.06011 92.56301,649.85292 96.004165,663.19585 C 102.45231,688.19824 103.60273,711.06283 103.62975,814.75473 C 103.66043,932.46334 100.89699,1019.6068 95.445052,1072.855 C 92.65903,1100.0655 92.437621,1126.2408 94.916158,1135.3793 C 97.146779,1143.6036 105.84053,1161.2063 113.44415,1172.8938 C 128.55507,1196.1209 151.58709,1219.4865 171.17283,1231.4587 C 182.18006,1238.1871 207.82868,1250.6641 223.44348,1256.8864 C 245.8909,1265.8313 266.59271,1270.3702 294.2586,1272.4128 C 308.97653,1273.4993 388.0139,1272.8777 415.24841,1271.4611 z M 304.21402,1156.2201 C 298.16214,1155.7316 288.42659,1154.2559 282.57946,1152.9408 C 263.46509,1148.6418 253.56561,1143.8088 215.54512,1120.2144 C 174.07001,1094.4762 169.64317,1089.7657 168.86043,1070.539 C 168.43076,1059.9849 169.48956,1036.8249 170.36184,1037.6972 C 170.6281,1037.9635 171.49789,1043.2819 172.2947,1049.5158 C 174.88531,1069.784 177.95247,1076.7689 188.58447,1086.613 C 203.38076,1100.3128 259.51156,1134.0667 279.85459,1141.4975 C 303.27827,1150.0537 330.00684,1151.7422 404.74516,1149.3873 C 595.06716,1143.3905 633.61027,1138.9193 802.36828,1103.2617 C 906.9817,1081.1574 927.63271,1075.3719 987.92574,1051.2767 C 1045.8161,1028.1417 1100.4773,1002.5605 1167.9815,967.01096 C 1215.031,942.23354 1248.4419,926.63798 1252.6643,927.48261 C 1255.0065,927.95109 1250.4208,932.19044 1240.6238,938.61393 C 1193.5717,969.46401 1063.786,1032.8463 992.97678,1059.5551 C 943.24224,1078.3146 892.25591,1093.6439 844.38129,1104.2311 C 684.27157,1139.6384 610.92904,1149.6552 477.26761,1154.3695 C 390.40503,1157.4332 327.5688,1158.1051 304.21402,1156.2201 z M 423.25089,1106.7163 C 359.28773,1102.9891 323.56293,1092.4218 282.20721,1064.9962 C 266.97313,1054.8936 243.69529,1030.5392 243.69529,1024.7034 C 243.69529,1022.5749 244.03189,1022.3014 245.94599,1022.8753 C 250.24155,1024.163 258.27874,1029.9041 273.20441,1042.3465 C 281.45697,1049.2261 291.36004,1056.9254 295.21123,1059.456 C 313.39495,1071.4045 333.92341,1081.1841 354.49662,1087.6992 C 395.59643,1100.7146 423.75132,1101.7356 564.79472,1095.3255 C 751.83258,1086.8249 770.9138,1084.6856 827.37602,1065.8854 C 897.16415,1042.648 983.66749,1007.1862 1062.9489,969.31256 C 1121.3646,941.40682 1160.3106,924.6368 1164.7267,925.48733 C 1168.4432,926.20311 1138.4018,943.28615 1093.9585,965.72946 C 1005.1391,1010.5824 885.2646,1059.6378 814.87215,1079.9383 C 783.00461,1089.1286 755.02472,1093.5569 704.83808,1097.3535 C 670.843,1099.9251 583.39021,1104.6148 536.78604,1106.3654 C 513.27034,1107.2486 436.46081,1107.486 423.25089,1106.7163 z M 493.77273,1053.4317 C 487.32755,1052.2302 519.9764,1051.3465 570.70554,1051.3497 C 622.82683,1051.3529 657.0587,1052.2215 652.82197,1053.4331 C 649.69902,1054.3263 498.56401,1054.325 493.77273,1053.4317 z M 503.77582,1013.2168 C 426.8114,1010.0076 354.02349,1000.4613 308.71541,987.63417 C 253.96144,972.13305 226.08199,949.65472 203.66079,902.93217 C 183.2493,860.39755 178.33515,831.23733 176.99973,744.72753 C 175.46938,645.59043 187.3942,563.28911 205.26373,549.65828 C 211.72349,544.73079 215.76917,535.59139 218.77314,519.1399 C 222.0524,501.18084 228.4411,491.77364 236.05969,493.68594 C 243.60261,495.57923 247.42355,505.95656 252.09678,537.2412 C 258.68148,581.32212 267.81538,598.69428 295.21123,619.24248 C 325.13122,641.6839 372.66372,662.89263 420.24996,675.03403 C 446.48002,681.72651 468.37318,685.04222 501.20703,687.29479 C 520.76126,688.63631 585.28609,687.99767 604.80711,686.2694 C 611.68424,685.66046 625.41349,684.4803 635.31655,683.64668 C 737.35404,675.05777 812.11616,657.47914 1005.7461,596.54852 C 1067.5539,577.09918 1105.9456,563.11542 1156.9781,541.46406 C 1188.9609,527.89483 1231.0478,507.58697 1252.1011,495.56508 C 1276.02,481.90697 1288.8641,471.1699 1290.9883,463.05763 C 1293.9953,451.5733 1300.6346,443.11038 1306.6374,443.11038 C 1312.8773,443.11038 1320.8679,455.77801 1325.5688,473.12203 C 1333.4073,502.04334 1340.0799,510.04653 1365.2206,520.6811 C 1371.4496,523.31596 1382.9852,527.838 1390.8556,530.73011 C 1407.0427,536.67848 1409.3598,537.95709 1412.1012,542.45329 C 1414.7448,546.78945 1414.5622,548.80096 1411.2214,552.14205 C 1406.5121,556.85155 1399.8415,558.2053 1376.5459,559.17897 C 1352.1006,560.2007 1346.9506,561.35111 1340.5953,567.2097 C 1335.5576,571.8536 1330.6123,581.92816 1328.5181,591.81387 C 1326.6664,600.55395 1326.6799,601.85673 1328.6863,608.06985 C 1331.0299,615.32667 1329.6236,619.30246 1321.8747,627.32711 C 1314.9914,634.45521 1296.6351,658.65151 1284.5175,676.56906 C 1235.6299,748.85633 1205.9625,786.80477 1175.1813,816.42458 C 1139.9338,850.34215 1074.2547,899.93221 1026.9378,928.35385 C 986.25633,952.78974 937.0054,971.66917 874.39058,986.82996 C 809.35607,1002.5766 750.06687,1009.8962 659.82414,1013.3194 C 629.26868,1014.4784 532.50604,1014.4149 503.77582,1013.2168 z M 543.2029,980.96698 C 547.44264,978.1888 548.13473,975.05959 546.77562,964.81301 C 543.94635,943.48272 537.06603,914.47196 532.30296,903.78931 C 529.63408,897.80358 527.59739,895.87463 522.28155,894.29842 C 516.23757,892.50623 488.83777,891.87748 473.99091,893.19029 C 454.61311,894.90376 450.75941,896.62563 450.75941,903.57022 C 450.75941,912.97938 470.29744,954.17608 482.38927,970.26302 C 487.52066,977.08978 492.11749,979.33675 504.77613,981.20577 C 508.90241,981.81501 513.4038,982.50458 514.77923,982.73817 C 516.15466,982.97176 522.51073,983.0632 528.90383,982.94145 C 538.02584,982.76768 541.10347,982.34272 543.2029,980.96698 z M 681.29416,981.2818 C 687.32588,980.64696 693.8529,979.60785 695.79865,978.97281 C 703.60002,976.42632 706.51839,962.29013 705.43396,932.30038 C 704.15856,897.02938 701.80814,876.93598 698.33825,871.63982 C 696.48226,868.80692 692.22708,868.52001 685.78452,870.79329 C 676.47784,874.07717 646.44369,878.30501 614.8102,880.78417 C 604.08188,881.625 592.37826,882.78845 588.80215,883.36968 C 569.42832,886.5184 568.81203,890.81377 579.91574,945.30543 C 584.95864,970.05354 586.08012,973.47597 590.38586,977.25674 C 596.47736,982.60562 602.66727,983.30309 639.81795,982.827 C 656.59814,982.61202 675.26244,981.91665 681.29416,981.2818 z M 432.37665,970.4532 C 433.12358,968.94921 433.24221,967.13081 432.70299,965.45126 C 426.8956,947.36183 413.9028,911.56403 411.18754,906.17183 C 406.44653,896.75668 401.56653,891.49663 396.90191,890.77365 C 386.69608,889.19184 380.33216,887.92665 371.08035,885.64026 C 365.49372,884.25962 359.64191,883.27654 358.07633,883.45571 C 355.53695,883.74632 355.24713,884.14518 355.39028,887.15205 C 355.48408,889.12241 359.71167,899.09598 365.56732,911.16137 C 378.05828,936.89857 381.02571,945.29603 381.1471,955.24999 L 381.23787,962.69368 L 385.73926,964.98327 C 393.99446,969.1821 414.31688,973.30181 425.22638,972.98798 C 430.42222,972.83853 431.35643,972.5074 432.37665,970.4532 z M 783.62024,970.24762 C 817.31454,965.52198 869.41406,953.11536 905.90034,941.12881 C 927.80439,933.93281 934.90932,929.09944 934.90932,921.39454 C 934.90932,914.50407 926.11877,892.74702 917.56332,878.46237 C 909.82939,865.54936 904.95435,847.58588 904.88931,831.76133 C 904.85,822.19862 903.77816,815.73271 901.9255,813.88209 C 901.30431,813.26165 898.68101,812.80407 896.09595,812.86529 C 891.285,812.97924 887.60859,814.12788 846.88206,828.24127 C 821.4195,837.06509 800.24802,843.49019 772.90349,850.69229 C 749.16275,856.94511 743.78287,859.82053 740.00495,868.27551 C 737.86485,873.06507 737.31315,899.95772 738.7776,928.10315 C 740.8178,967.31428 743.28244,972.30432 760.61311,972.31212 C 765.15628,972.31422 775.50948,971.38516 783.62024,970.24762 z M 342.53149,954.17097 C 343.11719,949.11491 322.55998,905.8214 311.83573,889.52557 C 303.77852,877.28241 298.40895,871.56579 293.61764,870.13013 C 290.54851,869.21058 289.44468,869.25069 288.14522,870.32921 C 286.08298,872.04088 286.60001,875.55864 291.28204,891.6712 C 295.58309,906.47265 296.59828,916.26035 294.38138,921.55251 C 292.45535,926.15039 289.779,927.29334 280.89171,927.31374 C 273.13314,927.33155 271.40071,928.11846 271.86652,931.41314 C 272.3039,934.50674 280.72257,940.20455 290.70984,944.16629 C 304.85836,949.77887 333.54313,957.36862 339.22486,957.00297 C 341.66311,956.84611 342.28311,956.31511 342.53149,954.17097 z M 256.67557,919.35265 C 258.21261,915.64161 257.38074,910.43719 253.46832,899.28756 C 246.29902,878.85632 225.65519,841.26502 221.60442,841.26502 C 220.10741,841.26502 220.52447,843.73118 223.69596,853.63273 C 226.80604,863.3425 249.94714,918.68639 251.86174,920.99349 C 253.61144,923.10191 255.37111,922.50208 256.67557,919.35265 z M 995.82946,903.96838 C 1006.351,897.8544 1042.7284,874.12198 1066.45,857.89588 C 1109.6849,828.3222 1122.1613,818.06941 1123.4821,811.02828 C 1124.2287,807.04803 1123.2076,804.51585 1118.8177,799.46189 C 1111.3583,790.87395 1107.1667,777.31038 1106.0765,758.23278 C 1105.652,750.80489 1104.7644,743.71994 1104.1041,742.48843 C 1101.2317,737.13135 1093.4509,738.98747 1064.5335,751.92833 C 1030.6515,767.09082 1027.714,768.3486 1008.9322,775.73487 C 991.88719,782.43808 985.71177,784.54609 962.06101,791.73489 C 940.75923,798.2097 935.9049,809.58562 942.88723,836.66794 C 948.63361,858.95639 965.61178,896.78739 973.62597,905.16044 C 977.70457,909.42159 977.98404,909.54004 982.85445,909.07206 C 986.42505,908.72893 990.17585,907.25355 995.82946,903.96838 z M 650.55282,781.24051 C 659.40599,780.09046 665.21134,777.26957 667.55593,772.9787 C 669.09147,770.16841 669.32708,766.94256 669.32708,748.72908 C 669.32708,725.35458 668.7156,722.31319 663.43441,719.42047 C 658.637,716.79285 639.97379,717.35767 608.16286,721.09332 C 574.45358,725.05186 563.6896,726.77203 562.71015,728.35694 C 561.751,729.90894 558.24923,743.80107 555.71897,756.09204 C 551.56181,776.28569 553.18537,779.03285 570.79658,781.60445 C 576.38752,782.42087 643.83643,782.11305 650.55282,781.24051 z M 777.86069,778.77705 C 807.20998,774.40506 840.15385,767.21626 861.08188,760.6171 C 876.54262,755.74201 884.89383,750.20126 884.89383,744.81887 C 884.89383,743.64191 882.3989,732.1106 879.34955,719.19368 C 872.74904,691.23442 869.3176,682.89048 864.21639,682.39579 C 860.82117,682.06656 835.40138,686.71057 787.86379,696.34471 C 733.56101,707.34998 722.05647,710.63386 714.49978,717.28604 C 708.283,722.75867 706.91091,727.01732 705.18147,746.208 C 702.66845,774.09354 704.2697,779.4138 715.84149,781.62696 C 717.21691,781.88996 727.79519,781.94308 739.34877,781.74501 C 755.36915,781.4703 764.51037,780.76583 777.86069,778.77705 z M 1166.9886,773.4893 C 1182.1564,757.88674 1208.2248,724.00645 1232.2237,688.70574 C 1241.873,674.51211 1245.5072,668.36615 1244.7172,667.57625 C 1242.7273,665.58618 1181.4136,693.2223 1165.4524,703.30341 C 1158.7284,707.55036 1150.1635,716.01905 1147.6227,720.93306 C 1143.4289,729.04361 1141.5487,739.29269 1141.5105,754.25203 C 1141.4757,767.8218 1141.6379,769.0986 1143.974,773.64156 C 1145.5807,776.76597 1147.7209,779.17281 1149.9603,780.37337 C 1156.1333,783.68296 1157.6912,783.05312 1166.9886,773.4893 z M 509.1502,780.15479 C 517.1173,777.94243 518.93237,773.69348 520.89586,752.65881 C 522.04111,740.39012 521.998,739.33911 520.19843,735.65218 C 516.4755,728.02481 508.95802,725.75333 467.76467,719.80912 C 414.24503,712.08612 408.4445,712.59092 402.43104,725.49463 C 399.55196,731.67253 393.91144,750.41744 392.75647,757.64565 C 391.65515,764.53802 393.44754,768.79818 398.30212,770.82677 C 402.7596,772.68929 417.27927,775.74428 428.9365,777.27217 C 455.94539,780.81234 500.95714,782.42987 509.1502,780.15479 z M 354.85792,768.39942 C 355.36401,767.06831 356.23366,761.42261 356.79049,755.85345 C 358.04709,743.28567 359.99529,732.69453 363.24472,720.76599 C 366.43996,709.03644 365.95391,706.27176 359.61009,700.09226 C 356.20954,696.77978 350.70251,693.40747 340.52555,688.40553 C 323.09833,679.84026 316.49959,677.54966 312.85187,678.79925 C 309.37527,679.99024 305.10688,688.62731 303.75387,697.20904 C 300.62321,717.06586 304.90957,746.48671 312.56838,757.71027 C 316.96107,764.14747 322.51609,766.87153 337.21081,769.79427 C 344.35563,771.21532 350.3911,772.56774 350.62295,772.79963 C 351.36491,773.54162 353.90723,770.9002 354.85792,768.39942 z M 262.70049,738.95966 C 264.61929,734.62157 267.71001,715.67932 269.76784,695.64574 C 270.96482,683.99271 270.62157,649.92626 269.27707,646.93954 C 268.84363,645.97667 267.67689,645.18886 266.68431,645.18886 C 261.89249,645.18886 253.5973,661.34143 244.78941,687.823 C 232.87368,723.64861 233.16016,727.51211 248.5568,738.63203 C 257.03107,744.75254 260.10676,744.82377 262.70049,738.95966 z M 934.48404,737.85703 C 938.29405,736.55413 955.23894,730.02299 972.13935,723.34319 C 1014.7691,706.49405 1030.9939,701.24391 1051.173,697.76886 C 1064.6043,695.45596 1097.1052,662.18885 1109.1572,638.41801 C 1114.481,627.91768 1115.4401,619.3014 1112.1206,611.79649 C 1110.9903,609.24117 1109.3668,606.88233 1108.5128,606.55461 C 1105.6898,605.4712 1098.1733,607.58882 1032.9396,627.84577 C 1023.3117,630.83555 1000.1295,637.78143 981.42372,643.28108 C 925.91145,659.60213 916.12931,663.13016 910.88088,668.7231 C 908.69867,671.04855 908.40997,672.22593 908.47493,678.53512 C 908.58879,689.59409 919.28786,732.12851 923.42633,737.97488 C 925.40971,740.77677 925.9626,740.77086 934.48404,737.85703 z M 1155.6902,663.05351 C 1164.4911,659.79551 1196.0007,645.18421 1219.4974,633.46551 C 1263.3462,611.59639 1278.8897,600.16688 1289.5732,581.93677 C 1300.3737,563.50684 1307.4517,535.89116 1303.6854,526.87618 C 1299.0597,515.80464 1284.6251,520.61931 1211.9951,557.45926 C 1160.4377,583.61057 1152.3021,590.10562 1148.293,608.31535 C 1146.168,617.96659 1145.7637,659.44978 1147.7604,662.94576 C 1149.3144,665.66654 1148.6557,665.65759 1155.6902,663.05351 z M 224.79101,632.78795 C 231.57282,623.85156 236.29056,608.17448 232.198,608.17448 C 227.6004,608.17448 215.60019,632.99925 218.17991,637.17365 C 219.28441,638.96091 220.93972,637.86281 224.79101,632.78795 z M 562.0249,663.13576 C 549.10442,660.85766 542.85597,656.24223 513.27877,627.12945 C 499.52451,613.59116 485.82643,600.60431 482.83861,598.2698 C 471.58729,589.47867 465.68626,588.13934 459.74003,593.0272 C 457.82662,594.60004 455.27079,596.19884 454.06041,596.5801 C 450.71149,597.63497 446.30414,594.8068 441.61262,588.59244 C 436.59712,581.94894 433.4823,580.16361 426.90702,580.16361 C 417.34644,580.16361 394.94186,588.54834 365.06057,603.30916 C 344.10726,613.65971 337.7244,615.85875 337.7244,612.72709 C 337.7244,610.3861 347.8408,600.49261 355.6111,595.23452 C 365.33703,588.65308 377.6969,583.25418 386.63657,581.6823 C 400.4059,579.26123 410.32978,572.97401 429.25275,554.6831 C 452.24622,532.45765 474.37729,515.85519 512.43443,492.28121 C 536.03623,477.66141 540.34999,470.02543 542.82835,438.47958 C 544.93514,411.66333 542.31474,407.04349 519.54525,397.43085 C 498.67507,388.62005 460.07487,380.87762 415.74857,376.6113 C 406.67075,375.73757 392.26628,374.347 383.73864,373.52113 C 363.54339,371.5653 337.01762,367.67878 325.65335,365.01055 C 319.22136,363.50039 315.44494,361.98374 312.51486,359.73399 C 302.88601,352.34088 299.8042,344.89626 303.31212,337.50328 C 305.64477,332.5872 316.23175,321.34966 324.11123,315.42608 C 342.17823,301.84379 362.47305,297.07658 402.24438,297.07276 C 427.33441,297.07034 459.78786,299.87045 478.40494,303.64396 C 499.68904,307.95803 521.04236,318.53906 545.88999,337.08427 C 567.48788,353.204 579.99573,358.27522 601.41848,359.59792 C 620.33783,360.76605 632.1305,364.50215 633.44621,369.74476 C 635.12466,376.43279 626.49596,384.30811 605.58876,395.16998 C 579.92174,408.50469 578.94558,410.25757 577.77677,445.11115 C 576.90865,470.9983 575.70573,478.40212 570.78348,488.15379 C 564.18454,501.22727 544.01816,518.21877 530.29755,522.26586 C 524.43075,523.99635 522.45187,525.18596 518.21345,529.53026 C 506.83598,541.19194 503.84056,554.05472 509.7792,565.74829 C 518.09158,582.11592 543.5564,610.78429 558.2927,620.36493 C 575.49368,631.54795 587.03296,632.34986 598.80525,623.18031 C 607.57585,616.3488 613.2065,615.50895 619.52892,620.08925 C 623.91035,623.2634 627.81423,630.14053 627.81423,634.68478 C 627.81423,645.34363 614.44883,656.36467 595.80432,661.08001 C 586.79744,663.35792 569.31806,664.42168 562.0249,663.13576 z M 420.62508,335.44356 C 424.82636,334.60323 424.56832,333.33164 419.99988,332.36267 C 415.0808,331.31934 386.84191,331.33792 379.48733,332.38933 C 373.58888,333.23257 371.98757,334.59256 375.98624,335.3628 C 379.60887,336.0606 417.20007,336.12862 420.62508,335.44356 z M 1416.2755,662.94576 C 1416.9457,660.76222 1429.9075,652.78361 1451.5411,641.23798 C 1463.079,635.08025 1475.254,628.0904 1478.5966,625.70497 C 1491.6841,616.36528 1501.3057,603.10853 1505.9043,588.08045 C 1511.0083,571.4008 1514.8461,538.24668 1515.7375,503.13369 C 1516.7253,464.2155 1514.3223,444.61371 1506.5527,428.21352 C 1496.5636,407.1285 1467.4759,371.07296 1456.8841,366.64703 C 1452.1636,364.67457 1425.9627,360.47857 1403.5544,358.10644 C 1386.7129,356.32363 1327.4563,351.07463 1324.1713,351.07463 C 1323.4783,351.07463 1323.1467,350.69371 1323.4344,350.22814 C 1323.7223,349.76256 1336.6902,349.07598 1352.2523,348.70241 C 1402.7983,347.48902 1445.5261,351.12074 1458.372,357.7222 C 1477.2985,367.44862 1503.7768,396.45774 1514.6199,419.34634 C 1522.4872,435.95347 1524.7277,456.97241 1523.7644,505.13447 C 1522.9628,545.20531 1519.1938,580.26347 1513.9498,596.42772 C 1509.7502,609.37245 1498.9361,624.93967 1487.6851,634.23663 C 1472.9261,646.43241 1414.0826,670.08946 1416.2755,662.94576 z M 821.40357,627.78195 C 817.7312,623.88779 814.96619,618.53269 814.20465,613.83947 C 813.17259,607.4791 815.47644,602.64666 823.71109,593.89928 C 835.42454,581.45648 839.50184,570.98602 836.99541,559.78526 C 834.42668,548.30603 824.83559,544.07485 787.86379,538.11046 C 774.20316,535.9067 766.85728,530.52472 766.85728,522.71999 C 766.85728,510.92623 793.04008,504.20362 821.87432,508.59397 C 848.50204,512.64835 864.30185,524.2293 869.01787,543.14923 C 870.80987,550.33847 870.72094,586.49055 868.89216,594.25042 C 865.53922,608.47757 856.52878,617.78025 836.15726,628.04698 C 828.08221,632.11659 825.44671,632.06926 821.40357,627.78195 z M 1424.6758,619.09042 C 1423.2153,617.94142 1421.2962,615.60114 1420.4112,613.88979 C 1417.2437,607.7641 1420.3951,590.86181 1428.6938,569.46523 C 1434.3573,554.86301 1438.7539,539.65203 1440.2387,529.52312 C 1441.2606,522.55171 1441.1847,520.15318 1439.704,512.61689 C 1435.2617,490.0061 1419.6788,461.32875 1401.3918,442.11074 C 1390.541,430.70737 1383.3998,425.95094 1371.321,422.08148 C 1353.7771,416.46119 1341.1644,414.76089 1317.0275,414.76223 C 1292.0243,414.76361 1284.8371,416.12587 1276.1372,422.51269 C 1262.0508,432.85381 1206.2172,454.776 1172.983,463.01454 C 1148.9487,468.97248 1138.4292,470.34456 1112.7839,470.8665 C 1085.7215,471.41727 1074.7089,470.45814 1057.8464,466.08172 C 1024.7471,457.49135 980.16733,425.20356 968.80836,401.59425 C 965.40924,394.52928 965.26942,392.59575 967.8721,388.64715 C 970.89825,384.05612 976.60707,381.09578 982.42403,381.10118 C 990.08005,381.1083 996.62523,384.71349 1006.1091,394.14734 C 1010.6228,398.63719 1017.4935,404.54683 1021.3771,407.27987 C 1046.2967,424.81648 1086.2873,439.10078 1110.4637,439.10078 C 1136.7825,439.10078 1185.984,423.27826 1243.5962,396.28729 C 1252.3168,392.20168 1262.0403,388.45122 1267.0121,387.25536 C 1302.3018,378.76749 1356.7687,378.51634 1382.5478,386.72262 C 1390.227,389.16709 1405.0577,397.22985 1413.3353,403.46029 C 1424.1404,411.59305 1438.7226,427.26648 1446.9958,439.63988 C 1471.4243,476.17482 1479.3122,516.11212 1470.0078,556.15428 C 1463.5785,583.8236 1450.7454,609.91799 1439.3815,618.42847 C 1434.7531,621.8948 1428.5932,622.17208 1424.6758,619.09042 z M 147.68059,615.0469 C 130.36573,610.39932 97.639292,595.81672 83.254427,586.33918 C 74.358753,580.47822 64.221994,571.02551 61.166218,565.7415 C 57.816271,559.94885 54.03603,546.77842 49.391602,524.71853 C 45.547081,506.45799 45.353251,504.65854 44.898751,483.00928 C 44.468538,462.51672 44.617874,459.61624 46.482901,452.24044 C 51.724574,431.51084 70.354063,397.0925 76.332634,397.0925 C 79.90447,397.0925 92.267838,388.2762 112.54664,371.26834 C 139.26362,348.86077 145.23739,347.12436 195.73055,347.08891 C 220.8734,347.07127 241.40284,345.73856 252.69808,343.39078 C 263.53898,341.13742 272.44117,341.2094 276.45671,343.58287 C 282.81715,347.34233 281.32807,351.78779 272.89274,354.22264 C 269.2211,355.28246 256.36663,355.59204 213.686,355.64851 C 143.83531,355.74091 146.98573,355.03983 125.98756,375.16474 C 114.16951,386.4913 107.46547,391.65464 93.648826,400.07147 C 83.058847,406.52268 76.995189,412.34 70.163814,422.60241 C 62.390657,434.27961 57.154696,447.67899 54.075362,463.77445 C 51.131401,479.16237 52.790174,495.63291 60.298029,525.5615 C 67.468799,554.1464 72.003074,563.45382 83.145574,572.46024 C 88.71923,576.96539 114.18928,590.29444 145.28612,604.97977 C 157.08731,610.55284 160.11009,612.86435 159.08621,615.53272 C 158.29454,617.59596 156.96651,617.53939 147.68059,615.0469 z M 768.591,608.80989 C 761.01549,600.99815 754.37288,599.86985 714.84118,599.68013 C 683.4123,599.52928 677.97221,598.70995 673.88344,593.51151 C 671.25349,590.1678 671.2935,588.24834 674.07856,584.15107 C 678.39038,577.80768 691.09506,572.31564 710.33978,568.47589 C 721.40658,566.26782 759.88179,565.95458 771.80333,567.97549 C 787.52244,570.64016 790.97929,574.22432 791.12123,588.00482 C 791.27332,602.77163 785.07283,613.17643 776.12082,613.17643 C 773.54399,613.17643 771.90222,612.22437 768.591,608.80989 z M 130.7579,561.14212 C 118.46639,554.3664 104.38604,540.75479 98.772142,530.22123 C 94.462848,522.13552 93.554147,514.74111 94.66251,496.77987 C 96.134826,472.92061 98.767291,454.56573 103.29238,436.60785 C 108.22982,417.01361 111.0998,413.3706 128.15951,405.04268 C 146.84253,395.92234 166.67144,391.02188 166.67144,395.52494 C 166.67144,398.56588 152.96467,407.61805 136.52003,415.43746 C 116.30543,425.04947 112.04809,433.03237 106.02312,472.62184 C 104.26005,484.20677 103.25935,494.9102 103.21724,502.63349 C 103.12783,519.02696 103.94682,520.57932 122.46637,539.11973 C 130.42014,547.08247 138.0458,555.28701 139.41227,557.35205 C 144.09067,564.42215 139.9765,566.2239 130.7579,561.14212 z M 1014.8507,553.75752 C 1014.4353,553.36287 1003.5031,552.5494 958.92758,549.59625 C 927.95347,547.54421 903.95132,544.73274 895.77347,542.19876 C 887.87339,539.75085 881.46423,533.70863 880.32483,527.63459 C 878.49041,517.85553 882.80854,506.13485 888.24576,506.13485 C 892.84955,506.13485 894.10538,509.89828 891.30732,515.30956 C 887.7771,522.13679 893.10725,530.98711 902.37128,533.68044 C 912.246,536.55133 929.38829,538.17661 959.91707,539.13642 C 1013.4204,540.81854 1024.8769,543.32481 1021.3291,552.5711 C 1020.7923,553.9701 1015.9985,554.84801 1014.8507,553.75752 z M 301.5669,505.162 C 293.57135,504.14876 286.65671,501.25605 283.11077,497.44098 C 281.674,495.89516 278.59173,490.57881 276.2613,485.62689 C 268.4851,469.10333 260.84088,461.90784 247.40419,458.4637 C 241.62395,456.98209 236.62369,456.63143 222.18863,456.69535 C 206.11898,456.76651 203.14338,457.05383 194.51335,459.36766 C 189.19501,460.79358 182.66799,463.06201 180.00886,464.4086 C 177.34973,465.7552 171.18607,468.92018 166.31184,471.44189 C 157.16255,476.17533 148.18204,478.74025 144.66592,477.62419 C 141.55915,476.63807 136.59975,472.08572 135.49844,469.20918 C 131.50125,458.76872 139.58125,444.97175 155.15973,435.63664 C 172.03937,425.52185 208.72332,420.03988 239.49868,423.03319 C 265.72105,425.58366 273.26673,428.98189 311.39619,455.41253 C 333.62683,470.8224 337.78568,471.33585 359.73121,461.37993 C 374.91726,454.49056 378.84904,453.26598 386.85932,452.93076 C 393.49186,452.6532 396.67656,454.34833 399.09393,459.44296 C 406.11142,474.23238 389.10849,493.64422 363.48352,500.09851 C 345.98763,504.50529 315.83986,506.97075 301.5669,505.162 z M 795.36611,413.48738 C 769.6562,396.61573 755.79048,384.44462 751.30629,374.81238 C 749.22646,370.3448 748.86983,368.08138 748.86148,359.2957 C 748.85538,352.86883 749.36043,347.80181 750.20762,345.79046 C 756.95069,329.78136 799.61268,298.39557 842.38067,277.9801 C 865.08334,267.14289 879.87118,262.33548 899.85794,259.29464 C 916.52834,256.75838 975.89697,256.82916 997.42868,259.41097 C 1024.7591,262.6881 1050.7776,268.04984 1069.451,274.25292 C 1114.3807,289.17806 1160.869,333.19493 1154.9439,355.20073 C 1153.5009,360.56021 1144.8239,369.05478 1136.8024,372.96097 C 1123.6097,379.38534 1110.9363,379.21973 1073.19,372.12975 C 1039.6328,365.82661 1029.4046,364.7602 1002.4302,364.75227 C 968.94977,364.74243 943.60161,368.16137 914.23575,376.64787 C 891.01002,383.35992 883.69449,386.36689 841.13413,406.6954 C 823.39326,415.16915 808.76373,422.08395 808.62407,422.06162 C 808.4844,422.03929 802.51833,418.18088 795.36611,413.48738 z M 820.50117,373.60143 C 826.96601,371.68142 845.98581,363.43641 867.38841,353.27598 C 887.06595,343.93449 898.3951,340.32767 912.40235,338.94509 C 923.05847,337.89327 927.14669,336.11301 927.71901,332.27528 C 927.89062,331.12456 926.86495,326.49151 925.43976,321.97962 C 924.01457,317.46773 922.45771,309.92036 921.98007,305.20769 C 921.26917,298.1935 920.70987,296.31384 918.89687,294.84564 C 916.20674,292.66713 914.99447,292.63952 905.91354,294.5499 C 870.70215,301.95742 833.06437,319.80283 807.17655,341.36458 C 797.48985,349.43256 792.86534,355.70198 792.86534,360.76621 C 792.86534,364.65478 797.61515,371.21819 801.98844,373.37279 C 806.20217,375.44878 813.95843,375.54456 820.50117,373.60143 z M 1112.9644,344.77257 C 1112.9644,342.68299 1103.7993,331.89921 1099.4495,328.87092 C 1090.4581,322.61095 1072.8415,319.89085 1067.8112,323.98579 L 1065.4497,325.90822 L 1068.4506,329.06412 C 1072.8324,333.67221 1084.0243,338.66433 1098.6304,342.52581 C 1113.8063,346.53793 1112.9644,346.40598 1112.9644,344.77257 z M 1188.7568,384.82582 C 1181.1112,380.5057 1173.9833,375.3546 1173.9833,374.14951 C 1173.9833,372.70433 1180.4991,371.74417 1185.58,372.44064 C 1191.3532,373.23201 1195.8048,375.58328 1197.1595,378.55687 C 1198.4485,381.38611 1197.4164,388.09412 1195.6947,388.07708 C 1195.0319,388.07052 1191.9099,386.60745 1188.7568,384.82582 z M 1193.2104,361.30506 C 1192.3759,360.73068 1195.6804,359.64494 1202.7133,358.18275 C 1216.839,355.24593 1219.9976,354.21072 1219.9976,352.51796 C 1219.9976,350.71327 1216.0625,348.79867 1196.4903,341.08052 C 1187.6876,337.60923 1180.0577,334.38626 1179.535,333.91837 C 1176.4086,331.11947 1220.5911,336.76304 1240.5039,341.70611 C 1250.2396,344.12287 1251.1449,348.12724 1243.108,353.22554 C 1234.3694,358.76896 1224.1266,361.29598 1208.494,361.76527 C 1200.7916,361.99649 1193.914,361.7894 1193.2104,361.30506 z M 555.54185,305.48158 C 555.12922,305.06453 554.78793,300.8593 554.78342,296.13662 C 554.7595,271.11677 548.87886,246.7321 538.87625,230.1759 C 532.28506,219.26624 532.34556,211.38213 539.00105,213.91274 C 546.37164,216.71526 553.36649,229.3325 556.84155,246.09328 C 558.80567,255.56651 558.9475,258.39875 558.36643,276.54568 C 557.69374,297.55423 556.79615,306.74937 555.54185,305.48158 z M 1154.2269,263.04834 C 1150.9379,260.85184 1141.8572,252.95599 1134.0476,245.50201 C 1106.1155,218.842 1077.7483,198.70915 1052.5918,187.69113 C 1030.5698,178.04593 991.88535,166.35382 969.42001,162.55305 C 941.24421,157.78616 909.99792,155.83959 867.38841,156.19674 C 810.39312,156.67446 786.49673,156.53627 783.54141,155.71187 C 776.86855,153.85044 783.18782,151.19592 799.63037,148.95341 C 812.48326,147.20047 879.49506,146.5656 907.54515,147.93103 C 962.01078,150.58232 988.87772,154.60251 1022.4364,165.12262 C 1057.7612,176.19637 1081.8218,188.44237 1109.4633,209.41631 C 1137.0022,230.31234 1165.7147,260.07839 1163.6137,265.55376 C 1162.7161,267.89297 1160.6591,267.34392 1154.2269,263.04834 z M 294.36896,264.36561 C 292.98773,262.98427 293.79517,249.02502 295.68338,241.64161 C 298.82038,229.37508 303.88526,220.82447 314.19526,210.38952 C 325.09824,199.3544 336.55876,191.6406 358.11235,180.83 C 391.00597,164.33159 404.52511,162.03464 448.26858,165.51208 C 511.57143,170.54442 557.52677,176.82573 569.85934,182.13149 C 579.74174,186.38312 580.0362,191.0136 570.42402,191.01117 C 567.60299,191.01045 560.79348,189.928 555.29177,188.60571 C 524.43517,181.18957 463.30868,174.60483 424.75135,174.54347 C 403.49604,174.50964 400.52536,174.71488 393.74174,176.68587 C 379.9628,180.68937 361.10643,190.32558 341.03439,203.62101 C 322.4218,215.94973 312.39771,227.37084 305.75877,243.81291 C 299.01322,260.519 295.98556,265.98234 294.36896,264.36561 z M 772.51914,255.90168 C 772.171,254.60096 771.8837,248.58483 771.8807,242.53247 C 771.86555,211.94795 777.68187,195.42895 794.67178,177.80322 C 806.22187,165.82087 814.30699,160.65945 816.34944,163.96447 C 817.36753,165.6119 812.31377,174.20978 806.33106,181.00858 C 791.1658,198.24249 781.58088,218.72567 776.84573,244.01939 C 774.42047,256.97436 773.49012,259.52941 772.51914,255.90168 z M 1202.979,251.38793 C 1194.9664,246.06008 1188.3361,240.29976 1171.1747,223.75668 C 1142.3883,196.0076 1115.5532,177.82696 1072.7562,157.07888 C 1016.0368,129.58118 974.08343,118.23277 898.89817,110.05026 C 868.95186,106.79116 844.51304,105.66088 818.37324,106.32602 C 785.30933,107.16735 767.16738,109.1616 725.84459,116.49717 C 644.58141,130.92293 541.00971,132.64901 427.25213,121.47337 C 374.41982,116.28308 356.51639,115.92665 344.01973,119.81636 C 340.77914,120.82503 333.66721,124.19885 328.21544,127.31375 C 317.79096,133.26982 312.36084,135.03501 310.42343,133.09745 C 307.53628,130.21007 317.29226,119.78886 327.95457,114.37095 C 343.16845,106.64021 364.85736,106.22488 427.75228,112.45992 C 494.17922,119.04508 575.12146,122.33381 615.31036,120.0805 C 660.22719,117.5621 694.2243,113.61138 728.34536,106.94497 C 746.63587,103.37147 766.19401,100.47101 782.86224,98.860161 C 798.61131,97.33814 848.14625,97.348944 869.88919,98.879129 C 914.51364,102.01964 966.80916,109.11508 991.53827,115.38443 C 1022.2354,123.16682 1074.7032,144.58391 1104.4588,161.47808 C 1125.0193,173.15158 1150.497,190.89476 1168.4816,206.06466 C 1186.8014,221.51734 1212.4197,250.92189 1210.4042,254.18328 C 1209.5636,255.54339 1208.7908,255.25241 1202.979,251.38793z"/>
</svg>